<svg xmlns="http://www.w3.org/2000/svg" viewBox="0 0 100 100">
  <defs>
    <linearGradient id="femaleBg" x1="0%" y1="0%" x2="100%" y2="100%">
      <stop offset="0%" style="stop-color:#E91E63"/>
      <stop offset="100%" style="stop-color:#C2185B"/>
    </linearGradient>
  </defs>
  <circle cx="50" cy="50" r="50" fill="url(#femaleBg)"/>
  <circle cx="50" cy="36" r="16" fill="#FFE0BD"/>
  <ellipse cx="50" cy="22" rx="18" ry="10" fill="#5D4037"/>
  <path d="M32 32 Q28 22, 35 16 Q50 10, 65 16 Q72 22, 68 32" fill="#5D4037"/>
  <path d="M32 32 Q30 42, 34 48" stroke="#5D4037" stroke-width="4" fill="none" stroke-linecap="round"/>
  <path d="M68 32 Q70 42, 66 48" stroke="#5D4037" stroke-width="4" fill="none" stroke-linecap="round"/>
  <circle cx="44" cy="34" r="2" fill="#333"/>
  <circle cx="56" cy="34" r="2" fill="#333"/>
  <path d="M46 42 Q50 45, 54 42" stroke="#333" stroke-width="1.5" fill="none" stroke-linecap="round"/>
  <ellipse cx="42" cy="38" rx="3" ry="2" fill="#FFB6C1" opacity="0.5"/>
  <ellipse cx="58" cy="38" rx="3" ry="2" fill="#FFB6C1" opacity="0.5"/>
  <path d="M50 52 C30 52, 20 70, 20 90 L20 100 L80 100 L80 90 C80 70, 70 52, 50 52" fill="#E91E63"/>
  <ellipse cx="50" cy="58" rx="8" ry="4" fill="#C2185B"/>
</svg>