<svg xmlns="http://www.w3.org/2000/svg" viewBox="0 0 100 100">
  <defs>
    <linearGradient id="maleBg" x1="0%" y1="0%" x2="100%" y2="100%">
      <stop offset="0%" style="stop-color:#4A90D9"/>
      <stop offset="100%" style="stop-color:#357ABD"/>
    </linearGradient>
  </defs>
  <circle cx="50" cy="50" r="50" fill="url(#maleBg)"/>
  <circle cx="50" cy="36" r="16" fill="#FFE0BD"/>
  <ellipse cx="50" cy="24" rx="14" ry="8" fill="#5D4037"/>
  <path d="M36 28 Q36 18, 50 15 Q64 18, 64 28 L64 24 Q64 16, 50 13 Q36 16, 36 24 Z" fill="#5D4037"/>
  <circle cx="44" cy="34" r="2" fill="#333"/>
  <circle cx="56" cy="34" r="2" fill="#333"/>
  <path d="M46 42 Q50 45, 54 42" stroke="#333" stroke-width="1.5" fill="none" stroke-linecap="round"/>
  <path d="M50 52 C30 52, 20 70, 20 90 L20 100 L80 100 L80 90 C80 70, 70 52, 50 52" fill="#4A90D9"/>
  <path d="M50 52 L45 65 L50 62 L55 65 Z" fill="#357ABD"/>
</svg>